<svg version="1.1" id="Layer_1" xmlns="http://www.w3.org/2000/svg" xmlns:xlink="http://www.w3.org/1999/xlink" x="0px" y="0px"
	 width="100%" viewBox="0 0 500 500" enable-background="new 0 0 500 500" xml:space="preserve">
<path fill="#000000" opacity="1.000000" stroke="none" 
	d="
M278.000000,501.000000 
	C185.333359,501.000000 93.166710,501.000000 1.000049,501.000000 
	C1.000033,334.333405 1.000033,167.666794 1.000016,1.000139 
	C167.666565,1.000093 334.333130,1.000093 500.999756,1.000046 
	C500.999847,167.666519 500.999847,334.333038 500.999939,500.999786 
	C426.833344,501.000000 352.666656,501.000000 278.000000,501.000000 
M235.526672,274.012756 
	C241.524139,274.012756 247.521591,274.014008 253.519058,274.012421 
	C261.522736,274.010345 261.925812,273.492096 260.137817,264.986633 
	C253.945221,264.986633 247.651154,265.154297 241.377701,264.868713 
	C239.810776,264.797363 237.277176,263.540070 236.962875,262.356537 
	C235.769730,257.863434 235.304428,253.177078 234.592682,248.723679 
	C241.551895,249.727036 248.629303,250.747437 256.159943,251.833191 
	C256.021027,248.809540 255.896774,247.002960 255.862213,245.194656 
	C255.723190,237.920334 255.676453,238.285675 248.790192,237.212112 
	C228.700745,234.080215 214.464111,222.872864 205.796555,204.651642 
	C190.264648,171.999954 209.164154,133.655823 244.383408,126.104324 
	C250.856171,124.716476 251.451370,125.206108 251.455780,132.017227 
	C251.463348,143.679138 251.421921,155.341187 251.469040,167.002899 
	C251.508331,176.725906 250.207916,174.532639 260.285767,175.465759 
	C260.445496,175.480545 260.613678,175.381775 260.776764,175.385635 
	C264.029999,175.462570 265.591064,174.074234 265.576630,170.625427 
	C265.498505,151.966705 265.499542,133.307327 265.577881,114.648621 
	C265.590515,111.634132 264.346558,110.276901 261.453339,110.488045 
	C255.162033,110.947189 248.776718,110.955742 242.606522,112.100716 
	C204.280609,119.212654 178.137894,160.604874 188.047409,198.181778 
	C192.325134,214.402924 201.769562,227.202393 214.561737,237.711685 
	C221.802490,243.660233 226.662277,250.983414 227.564529,260.444519 
	C227.697830,261.842438 226.221573,263.529297 225.205688,264.866516 
	C223.983749,266.474945 221.446274,267.746216 221.277771,269.352234 
	C220.946289,272.511871 223.531799,273.873291 226.545502,273.963684 
	C229.208694,274.043610 231.875534,274.001160 235.526672,274.012756 
M297.063263,146.437317 
	C291.409607,140.103592 284.372955,135.940689 276.415070,133.018158 
	C275.144958,144.803268 275.306885,145.323730 280.917053,149.449463 
	C294.008514,159.077042 299.242279,172.330032 296.471069,187.933060 
	C293.669098,203.709335 283.699921,214.004425 267.966095,217.850891 
	C251.944366,221.767746 238.762772,216.671860 228.588272,203.875427 
	C216.573898,188.765015 219.105484,162.920868 233.529327,151.914917 
	C240.083496,146.913834 241.196625,142.879868 238.180283,135.059875 
	C225.183167,136.918121 210.237930,156.791580 208.194199,174.933929 
	C205.587906,198.070389 219.322479,220.133804 241.501984,228.440018 
	C263.663574,236.739517 287.658752,228.586166 301.816345,207.945679 
	C314.361206,189.656418 312.577728,164.082169 297.063263,146.437317 
M158.656006,331.537628 
	C158.656006,328.086823 158.656006,324.635986 158.656006,320.978607 
	C155.824600,320.978607 153.447784,320.978607 150.786057,320.978607 
	C150.786057,325.068542 150.786057,328.862152 150.786057,332.850647 
	C146.545746,332.850647 142.594223,332.850647 138.172455,332.850647 
	C138.172455,328.773529 138.172455,324.861694 138.172455,321.095398 
	C135.317123,321.095398 132.941010,321.095398 130.720734,321.095398 
	C130.720734,331.267365 130.720734,341.014648 130.720734,350.849060 
	C133.328293,350.849060 135.623505,350.849060 138.503296,350.849060 
	C138.503296,346.952850 138.503296,343.230560 138.503296,339.540924 
	C142.834457,339.540924 146.575699,339.540924 150.703629,339.540924 
	C150.703629,343.463074 150.703629,347.067719 150.703629,350.716309 
	C153.506409,350.716309 155.908630,350.716309 158.655884,350.716309 
	C158.655884,344.450104 158.655884,338.487122 158.656006,331.537628 
M247.439499,350.775635 
	C250.289536,350.775635 253.139587,350.775635 256.635651,350.775635 
	C252.426926,344.506012 248.674744,338.916534 244.869873,333.248535 
	C248.513611,329.143768 251.949997,325.272583 255.474091,321.302612 
	C244.509003,317.556091 242.459396,328.569916 235.497406,332.511993 
	C235.497406,328.262878 235.497406,324.684998 235.497406,320.908508 
	C232.782608,320.908508 230.519928,320.908508 228.026855,320.908508 
	C228.026855,330.929718 228.026855,340.820251 228.026855,350.841827 
	C230.503876,350.841827 232.787491,350.841827 234.481567,350.841827 
	C235.757080,346.821777 236.932999,343.115570 238.108932,339.409393 
	C238.623581,339.464630 239.138245,339.519897 239.652908,339.575165 
	C242.080887,343.100159 244.508865,346.625122 247.439499,350.775635 
M286.535461,350.990326 
	C287.019073,350.478455 287.919830,349.970276 287.924438,349.454132 
	C288.009094,340.001801 287.986267,330.548523 287.986267,320.946716 
	C285.469421,320.946716 283.397278,320.946716 280.775208,320.946716 
	C280.775208,326.672974 280.775208,332.202423 280.775208,339.167603 
	C276.604797,333.630371 273.069122,329.463959 270.151306,324.902313 
	C267.607788,320.925873 264.533112,319.845215 260.234924,321.180084 
	C260.234924,331.113892 260.234924,340.872772 260.234924,350.647888 
	C262.683838,350.647888 264.888550,350.647888 267.552429,350.647888 
	C267.552429,344.817688 267.552429,339.342438 267.552429,332.820557 
	C271.713715,338.371338 275.389618,342.883240 278.597992,347.706146 
	C280.423645,350.450470 282.551178,351.483795 286.535461,350.990326 
M293.999146,342.455872 
	C293.999146,345.224121 293.999146,347.992401 293.999146,350.778870 
	C302.339783,350.778870 310.096039,350.778870 317.975891,350.778870 
	C317.975891,348.812500 317.975891,347.078186 317.975891,344.839844 
	C312.512482,344.839844 307.270782,344.839844 301.805023,344.839844 
	C301.920319,342.584198 302.009064,340.848297 302.116150,338.753662 
	C306.989777,338.753662 311.420410,338.753662 315.886597,338.753662 
	C315.886597,336.624268 315.886597,334.885529 315.886597,332.742004 
	C311.188080,332.742004 306.755981,332.742004 302.146423,332.742004 
	C302.146423,330.618011 302.146423,328.905579 302.146423,326.700439 
	C307.498474,326.700439 312.573822,326.700439 317.554443,326.700439 
	C317.554443,324.464386 317.554443,322.727570 317.554443,320.894470 
	C309.610077,320.894470 301.990906,320.894470 293.999146,320.894470 
	C293.999146,327.877136 293.999146,334.670990 293.999146,342.455872 
M170.721619,329.102631 
	C167.643005,336.229248 164.564392,343.355835 161.066544,351.452942 
	C164.557892,350.906311 168.907898,351.130890 169.279694,350.021820 
	C171.929810,342.116425 178.231750,346.582672 182.796265,345.555664 
	C183.439453,345.410950 184.893082,346.291016 185.039291,346.915131 
	C186.434326,352.869904 190.934631,350.676819 195.065491,350.922943 
	C190.997528,341.271179 187.126373,331.943634 183.074203,322.695343 
	C182.673721,321.781342 181.248856,321.037048 180.158386,320.750244 
	C173.627914,319.032837 172.709366,324.222565 170.721619,329.102631 
M338.634735,341.674011 
	C338.313324,345.788666 335.258575,345.317139 332.810181,344.664673 
	C329.713531,343.839447 326.808594,342.295074 323.631989,340.982819 
	C322.729340,342.886566 321.905182,344.624817 321.041962,346.445404 
	C327.342346,351.018860 333.867157,352.604614 341.035889,350.114471 
	C344.846619,348.790741 347.026215,346.016357 346.973541,341.817139 
	C346.923218,337.803589 344.666138,335.363464 341.107483,333.997223 
	C338.479095,332.988159 335.735931,332.257751 333.168091,331.122375 
	C332.295990,330.736755 331.803253,329.493286 331.137146,328.641815 
	C332.161804,328.026825 333.272949,326.783508 334.195465,326.910522 
	C337.422424,327.354675 340.584290,328.271759 344.311768,329.134399 
	C345.076294,327.530975 345.953064,325.692169 346.897064,323.712341 
	C341.166077,320.420532 335.608856,319.283905 329.715485,321.069153 
	C325.774475,322.263000 323.036469,324.701202 322.893860,329.234253 
	C322.756287,333.606567 325.245453,335.873871 329.011414,337.285736 
	C332.079468,338.435913 335.094025,339.728790 338.634735,341.674011 
M197.195419,329.067749 
	C194.188522,337.688782 196.408447,345.062408 203.239838,349.144745 
	C209.968704,353.165833 218.534134,351.655548 223.668381,345.709290 
	C222.433960,344.128052 221.213348,342.564514 220.070251,341.100250 
	C213.431763,345.350464 209.041962,345.386688 205.810455,341.526489 
	C203.183197,338.388092 203.143936,333.117950 205.724365,329.966949 
	C208.976639,325.995514 213.058792,326.063965 220.158905,330.399750 
	C221.446777,328.846344 222.768311,327.252380 224.079315,325.671082 
	C215.002213,317.632019 204.413803,318.860687 197.195419,329.067749 
M232.717468,281.797028 
	C231.886673,281.796997 231.055786,281.788055 230.225113,281.798492 
	C227.120850,281.837463 223.361832,281.082855 223.204147,285.838593 
	C223.065506,290.019623 226.500488,290.491943 229.482620,290.564636 
	C238.610901,290.787109 247.745956,290.791626 256.878082,290.765961 
	C260.511261,290.755737 260.873383,288.267029 260.945557,285.275024 
	C261.026215,281.931824 259.216492,281.391449 256.567413,281.438629 
	C248.933289,281.574493 241.298630,281.679749 232.717468,281.797028 
M374.392670,321.688690 
	C365.929352,321.200043 357.466003,320.711426 348.906891,320.217285 
	C348.906891,323.064392 348.906891,324.917664 348.906891,327.088257 
	C351.944855,327.088257 354.564026,327.088257 357.647369,327.088257 
	C357.647369,335.143188 357.647369,342.882721 357.647369,350.768738 
	C360.374817,350.768738 362.623077,350.768738 365.277100,350.768738 
	C365.277100,346.756134 365.277100,342.967163 365.277100,339.178192 
	C365.277100,335.223389 365.277100,331.268585 365.277100,327.149933 
	C368.544373,326.999054 371.300842,326.871765 374.298462,326.733337 
	C374.373413,325.159302 374.435303,323.859100 374.392670,321.688690 
M276.765320,271.343903 
	C285.899780,273.001770 289.313324,279.448914 290.274506,287.949066 
	C292.035736,276.496735 293.306366,275.062195 306.297546,270.265411 
	C295.479675,269.425751 290.847626,263.027100 290.161926,252.919571 
	C286.910339,266.785706 285.549622,268.209869 271.842041,270.797150 
	C274.157867,271.045166 275.064606,271.142273 276.765320,271.343903 
M242.726562,305.602692 
	C247.715469,305.697296 252.719482,306.027649 257.681915,305.709351 
	C258.824615,305.636078 260.704193,303.323883 260.683746,302.067413 
	C260.653229,300.192017 259.323334,296.777130 258.397522,296.726318 
	C251.606720,296.353516 244.760513,296.421661 237.978775,296.952026 
	C236.686661,297.053070 234.606812,299.882141 234.694794,301.343964 
	C234.788712,302.904816 236.848801,304.566284 238.395279,305.723053 
	C239.106018,306.254700 240.639572,305.686279 242.726562,305.602692 
M319.128387,287.062317 
	C320.336884,288.536591 321.545349,290.010864 322.495026,291.169434 
	C324.577393,289.281464 326.895233,287.179993 329.213104,285.078491 
	C328.497559,285.994385 327.782043,286.910278 327.066498,287.826172 
	C325.444702,285.058105 323.822876,282.290009 322.750244,280.459259 
	C320.245972,282.268890 317.517303,284.240662 315.309174,285.836273 
	C315.676422,285.939026 317.067383,286.328156 319.128387,287.062317 
z"/>
<path fill="#00F7F4" opacity="1.000000" stroke="none" 
	d="
M235.033722,274.012756 
	C231.875534,274.001160 229.208694,274.043610 226.545502,273.963684 
	C223.531799,273.873291 220.946289,272.511871 221.277771,269.352234 
	C221.446274,267.746216 223.983749,266.474945 225.205688,264.866516 
	C226.221573,263.529297 227.697830,261.842438 227.564529,260.444519 
	C226.662277,250.983414 221.802490,243.660233 214.561737,237.711685 
	C201.769562,227.202393 192.325134,214.402924 188.047409,198.181778 
	C178.137894,160.604874 204.280609,119.212654 242.606522,112.100716 
	C248.776718,110.955742 255.162033,110.947189 261.453339,110.488045 
	C264.346558,110.276901 265.590515,111.634132 265.577881,114.648621 
	C265.499542,133.307327 265.498505,151.966705 265.576630,170.625427 
	C265.591064,174.074234 264.029999,175.462570 260.776764,175.385635 
	C260.613678,175.381775 260.445496,175.480545 260.285767,175.465759 
	C250.207916,174.532639 251.508331,176.725906 251.469040,167.002899 
	C251.421921,155.341187 251.463348,143.679138 251.455780,132.017227 
	C251.451370,125.206108 250.856171,124.716476 244.383408,126.104324 
	C209.164154,133.655823 190.264648,171.999954 205.796555,204.651642 
	C214.464111,222.872864 228.700745,234.080215 248.790192,237.212112 
	C255.676453,238.285675 255.723190,237.920334 255.862213,245.194656 
	C255.896774,247.002960 256.021027,248.809540 256.159943,251.833191 
	C248.629303,250.747437 241.551895,249.727036 234.592682,248.723679 
	C235.304428,253.177078 235.769730,257.863434 236.962875,262.356537 
	C237.277176,263.540070 239.810776,264.797363 241.377701,264.868713 
	C247.651154,265.154297 253.945221,264.986633 260.137817,264.986633 
	C261.925812,273.492096 261.522736,274.010345 253.519058,274.012421 
	C247.521591,274.014008 241.524139,274.012756 235.033722,274.012756 
z"/>
<path fill="#F9F9F9" opacity="1.000000" stroke="none" 
	d="
M297.312561,146.687714 
	C312.577728,164.082169 314.361206,189.656418 301.816345,207.945679 
	C287.658752,228.586166 263.663574,236.739517 241.501984,228.440018 
	C219.322479,220.133804 205.587906,198.070389 208.194199,174.933929 
	C210.237930,156.791580 225.183167,136.918121 238.180283,135.059875 
	C241.196625,142.879868 240.083496,146.913834 233.529327,151.914917 
	C219.105484,162.920868 216.573898,188.765015 228.588272,203.875427 
	C238.762772,216.671860 251.944366,221.767746 267.966095,217.850891 
	C283.699921,214.004425 293.669098,203.709335 296.471069,187.933060 
	C299.242279,172.330032 294.008514,159.077042 280.917053,149.449463 
	C275.306885,145.323730 275.144958,144.803268 276.415070,133.018158 
	C284.372955,135.940689 291.409607,140.103592 297.312561,146.687714 
z"/>
<path fill="#00F0EE" opacity="1.000000" stroke="none" 
	d="
M158.655945,332.030884 
	C158.655884,338.487122 158.655884,344.450104 158.655884,350.716309 
	C155.908630,350.716309 153.506409,350.716309 150.703629,350.716309 
	C150.703629,347.067719 150.703629,343.463074 150.703629,339.540924 
	C146.575699,339.540924 142.834457,339.540924 138.503296,339.540924 
	C138.503296,343.230560 138.503296,346.952850 138.503296,350.849060 
	C135.623505,350.849060 133.328293,350.849060 130.720734,350.849060 
	C130.720734,341.014648 130.720734,331.267365 130.720734,321.095398 
	C132.941010,321.095398 135.317123,321.095398 138.172455,321.095398 
	C138.172455,324.861694 138.172455,328.773529 138.172455,332.850647 
	C142.594223,332.850647 146.545746,332.850647 150.786057,332.850647 
	C150.786057,328.862152 150.786057,325.068542 150.786057,320.978607 
	C153.447784,320.978607 155.824600,320.978607 158.656006,320.978607 
	C158.656006,324.635986 158.656006,328.086823 158.655945,332.030884 
z"/>
<path fill="#00F5F2" opacity="1.000000" stroke="none" 
	d="
M247.188171,350.462891 
	C244.508865,346.625122 242.080887,343.100159 239.652908,339.575165 
	C239.138245,339.519897 238.623581,339.464630 238.108932,339.409393 
	C236.932999,343.115570 235.757080,346.821777 234.481567,350.841827 
	C232.787491,350.841827 230.503876,350.841827 228.026855,350.841827 
	C228.026855,340.820251 228.026855,330.929718 228.026855,320.908508 
	C230.519928,320.908508 232.782608,320.908508 235.497406,320.908508 
	C235.497406,324.684998 235.497406,328.262878 235.497406,332.511993 
	C242.459396,328.569916 244.509003,317.556091 255.474091,321.302612 
	C251.949997,325.272583 248.513611,329.143768 244.869873,333.248535 
	C248.674744,338.916534 252.426926,344.506012 256.635651,350.775635 
	C253.139587,350.775635 250.289536,350.775635 247.188171,350.462891 
z"/>
<path fill="#00FCF9" opacity="1.000000" stroke="none" 
	d="
M286.088074,350.996124 
	C282.551178,351.483795 280.423645,350.450470 278.597992,347.706146 
	C275.389618,342.883240 271.713715,338.371338 267.552429,332.820557 
	C267.552429,339.342438 267.552429,344.817688 267.552429,350.647888 
	C264.888550,350.647888 262.683838,350.647888 260.234924,350.647888 
	C260.234924,340.872772 260.234924,331.113892 260.234924,321.180084 
	C264.533112,319.845215 267.607788,320.925873 270.151306,324.902313 
	C273.069122,329.463959 276.604797,333.630371 280.775208,339.167603 
	C280.775208,332.202423 280.775208,326.672974 280.775208,320.946716 
	C283.397278,320.946716 285.469421,320.946716 287.986267,320.946716 
	C287.986267,330.548523 288.009094,340.001801 287.924438,349.454132 
	C287.919830,349.970276 287.019073,350.478455 286.088074,350.996124 
z"/>
<path fill="#00F9F6" opacity="1.000000" stroke="none" 
	d="
M293.999146,341.960358 
	C293.999146,334.670990 293.999146,327.877136 293.999146,320.894470 
	C301.990906,320.894470 309.610077,320.894470 317.554443,320.894470 
	C317.554443,322.727570 317.554443,324.464386 317.554443,326.700439 
	C312.573822,326.700439 307.498474,326.700439 302.146423,326.700439 
	C302.146423,328.905579 302.146423,330.618011 302.146423,332.742004 
	C306.755981,332.742004 311.188080,332.742004 315.886597,332.742004 
	C315.886597,334.885529 315.886597,336.624268 315.886597,338.753662 
	C311.420410,338.753662 306.989777,338.753662 302.116150,338.753662 
	C302.009064,340.848297 301.920319,342.584198 301.805023,344.839844 
	C307.270782,344.839844 312.512482,344.839844 317.975891,344.839844 
	C317.975891,347.078186 317.975891,348.812500 317.975891,350.778870 
	C310.096039,350.778870 302.339783,350.778870 293.999146,350.778870 
	C293.999146,347.992401 293.999146,345.224121 293.999146,341.960358 
z"/>
<path fill="#00F7F4" opacity="1.000000" stroke="none" 
	d="
M170.856262,328.745270 
	C172.709366,324.222565 173.627914,319.032837 180.158386,320.750244 
	C181.248856,321.037048 182.673721,321.781342 183.074203,322.695343 
	C187.126373,331.943634 190.997528,341.271179 195.065491,350.922943 
	C190.934631,350.676819 186.434326,352.869904 185.039291,346.915131 
	C184.893082,346.291016 183.439453,345.410950 182.796265,345.555664 
	C178.231750,346.582672 171.929810,342.116425 169.279694,350.021820 
	C168.907898,351.130890 164.557892,350.906311 161.066544,351.452942 
	C164.564392,343.355835 167.643005,336.229248 170.856262,328.745270 
M177.619827,339.656677 
	C179.018921,339.557617 180.418015,339.458588 182.354385,339.321503 
	C180.961990,335.733246 179.761856,332.640442 178.098969,328.355103 
	C176.597076,332.119415 175.399338,334.747406 174.598114,337.491150 
	C174.461746,337.958130 176.024963,338.921448 177.619827,339.656677 
z"/>
<path fill="#00F4F1" opacity="1.000000" stroke="none" 
	d="
M338.383514,341.316223 
	C335.094025,339.728790 332.079468,338.435913 329.011414,337.285736 
	C325.245453,335.873871 322.756287,333.606567 322.893860,329.234253 
	C323.036469,324.701202 325.774475,322.263000 329.715485,321.069153 
	C335.608856,319.283905 341.166077,320.420532 346.897064,323.712341 
	C345.953064,325.692169 345.076294,327.530975 344.311768,329.134399 
	C340.584290,328.271759 337.422424,327.354675 334.195465,326.910522 
	C333.272949,326.783508 332.161804,328.026825 331.137146,328.641815 
	C331.803253,329.493286 332.295990,330.736755 333.168091,331.122375 
	C335.735931,332.257751 338.479095,332.988159 341.107483,333.997223 
	C344.666138,335.363464 346.923218,337.803589 346.973541,341.817139 
	C347.026215,346.016357 344.846619,348.790741 341.035889,350.114471 
	C333.867157,352.604614 327.342346,351.018860 321.041962,346.445404 
	C321.905182,344.624817 322.729340,342.886566 323.631989,340.982819 
	C326.808594,342.295074 329.713531,343.839447 332.810181,344.664673 
	C335.258575,345.317139 338.313324,345.788666 338.383514,341.316223 
z"/>
<path fill="#00F5F2" opacity="1.000000" stroke="none" 
	d="
M197.400085,328.734924 
	C204.413803,318.860687 215.002213,317.632019 224.079315,325.671082 
	C222.768311,327.252380 221.446777,328.846344 220.158905,330.399750 
	C213.058792,326.063965 208.976639,325.995514 205.724365,329.966949 
	C203.143936,333.117950 203.183197,338.388092 205.810455,341.526489 
	C209.041962,345.386688 213.431763,345.350464 220.070251,341.100250 
	C221.213348,342.564514 222.433960,344.128052 223.668381,345.709290 
	C218.534134,351.655548 209.968704,353.165833 203.239838,349.144745 
	C196.408447,345.062408 194.188522,337.688782 197.400085,328.734924 
z"/>
<path fill="#F0F0F0" opacity="1.000000" stroke="none" 
	d="
M233.190826,281.797058 
	C241.298630,281.679749 248.933289,281.574493 256.567413,281.438629 
	C259.216492,281.391449 261.026215,281.931824 260.945557,285.275024 
	C260.873383,288.267029 260.511261,290.755737 256.878082,290.765961 
	C247.745956,290.791626 238.610901,290.787109 229.482620,290.564636 
	C226.500488,290.491943 223.065506,290.019623 223.204147,285.838593 
	C223.361832,281.082855 227.120850,281.837463 230.225113,281.798492 
	C231.055786,281.788055 231.886673,281.796997 233.190826,281.797058 
z"/>
<path fill="#00FCF9" opacity="1.000000" stroke="none" 
	d="
M374.444946,322.123779 
	C374.435303,323.859100 374.373413,325.159302 374.298462,326.733337 
	C371.300842,326.871765 368.544373,326.999054 365.277100,327.149933 
	C365.277100,331.268585 365.277100,335.223389 365.277100,339.178192 
	C365.277100,342.967163 365.277100,346.756134 365.277100,350.768738 
	C362.623077,350.768738 360.374817,350.768738 357.647369,350.768738 
	C357.647369,342.882721 357.647369,335.143188 357.647369,327.088257 
	C354.564026,327.088257 351.944855,327.088257 348.906891,327.088257 
	C348.906891,324.917664 348.906891,323.064392 348.906891,320.217285 
	C357.466003,320.711426 365.929352,321.200043 374.444946,322.123779 
z"/>
<path fill="#F2F2F2" opacity="1.000000" stroke="none" 
	d="
M276.368347,271.291626 
	C275.064606,271.142273 274.157867,271.045166 271.842041,270.797150 
	C285.549622,268.209869 286.910339,266.785706 290.161926,252.919571 
	C290.847626,263.027100 295.479675,269.425751 306.297546,270.265411 
	C293.306366,275.062195 292.035736,276.496735 290.274506,287.949066 
	C289.313324,279.448914 285.899780,273.001770 276.368347,271.291626 
z"/>
<path fill="#00E9E6" opacity="1.000000" stroke="none" 
	d="
M242.263290,305.609711 
	C240.639572,305.686279 239.106018,306.254700 238.395279,305.723053 
	C236.848801,304.566284 234.788712,302.904816 234.694794,301.343964 
	C234.606812,299.882141 236.686661,297.053070 237.978775,296.952026 
	C244.760513,296.421661 251.606720,296.353516 258.397522,296.726318 
	C259.323334,296.777130 260.653229,300.192017 260.683746,302.067413 
	C260.704193,303.323883 258.824615,305.636078 257.681915,305.709351 
	C252.719482,306.027649 247.715469,305.697296 242.263290,305.609711 
z"/>
<path fill="#F0F0F0" opacity="1.000000" stroke="none" 
	d="
M318.793396,286.889832 
	C317.067383,286.328156 315.676422,285.939026 315.309174,285.836273 
	C317.517303,284.240662 320.245972,282.268890 322.750244,280.459259 
	C323.822876,282.290009 325.444702,285.058105 327.066498,287.826172 
	C327.782043,286.910278 328.497559,285.994385 329.213104,285.078491 
	C326.895233,287.179993 324.577393,289.281464 322.495026,291.169434 
	C321.545349,290.010864 320.336884,288.536591 318.793396,286.889832 
z"/>
<path fill="#002323" opacity="1.000000" stroke="none" 
	d="
M177.211411,339.656067 
	C176.024963,338.921448 174.461746,337.958130 174.598114,337.491150 
	C175.399338,334.747406 176.597076,332.119415 178.098969,328.355103 
	C179.761856,332.640442 180.961990,335.733246 182.354385,339.321503 
	C180.418015,339.458588 179.018921,339.557617 177.211411,339.656067 
z"/>
</svg>